<?xml version="1.0" standalone="no"?>
<!DOCTYPE svg PUBLIC "-//W3C//DTD SVG 20010904//EN"
 "http://www.w3.org/TR/2001/REC-SVG-20010904/DTD/svg10.dtd">
<svg version="1.0" xmlns="http://www.w3.org/2000/svg"
 width="312.000000pt" height="312.000000pt" viewBox="0 0 312.000000 312.000000"
 preserveAspectRatio="xMidYMid meet">
<metadata>
Created by potrace 1.14, written by Peter Selinger 2001-2017
</metadata>
<g transform="translate(0.000000,312.000000) scale(0.100000,-0.100000)"
fill="#000000" stroke="none">
<path d="M823 3109 c-23 -4 -73 -22 -110 -39 -37 -18 -86 -39 -108 -47 -22 -9
-66 -34 -98 -55 -32 -21 -77 -50 -100 -62 -35 -20 -46 -35 -70 -92 -15 -37
-32 -71 -38 -74 -5 -4 -55 -15 -111 -24 -143 -25 -148 -28 -148 -88 0 -63 21
-113 69 -163 21 -22 60 -74 87 -115 l49 -75 6 -200 c8 -220 14 -246 72 -313
18 -20 45 -62 60 -92 14 -30 37 -67 49 -82 13 -15 37 -44 54 -65 17 -21 69
-65 115 -98 46 -32 109 -87 139 -121 104 -115 154 -257 117 -330 -8 -16 -24
-65 -36 -109 -28 -99 -73 -186 -120 -227 -60 -52 -81 -87 -81 -134 0 -56 7
-72 41 -89 63 -33 262 -5 347 49 23 15 54 48 74 80 34 57 54 70 60 39 2 -14
12 -17 43 -15 53 3 71 -9 56 -36 -6 -12 -11 -71 -11 -136 0 -137 -13 -184 -77
-274 -32 -44 -43 -70 -41 -90 l3 -27 105 0 c147 0 318 14 354 29 17 7 56 19
86 26 71 17 107 38 191 110 88 76 91 78 212 101 118 22 181 24 328 7 l107 -11
-10 -29 c-8 -21 -6 -40 8 -79 l19 -52 100 6 c74 3 114 10 149 27 27 12 64 24
82 27 44 7 54 21 97 131 37 93 56 179 82 379 8 59 22 152 31 206 17 96 17 100
-5 215 -36 190 -71 324 -99 374 -13 26 -60 81 -103 122 -43 42 -85 88 -94 104
-26 43 -51 54 -154 69 -51 7 -121 22 -155 34 -105 36 -263 116 -285 145 -43
55 -20 274 32 306 8 5 12 52 12 160 0 172 -16 246 -64 292 -31 30 -127 78
-196 99 -27 8 -88 38 -135 66 -170 102 -250 134 -480 191 -228 57 -391 72
-507 49z"/>
</g>
</svg>
